<svg width="128" height="128" version="1.1" viewBox="0 0 33.867 33.867" xml:space="preserve" xmlns="http://www.w3.org/2000/svg"><g><path d="m15.346 33.867h-6.8792v-2.1167h-8.4667v-25.4h4.2333v-1.0583h-3.175v-3.175h19.05v3.175h1.0583v-3.175h2.1167v-2.1167h10.583v26.458h-2.1167v7.4083h-5.2917v-1.0583h-4.2333v1.0583z" fill="#fff"/><path d="m24.342 1.0583v0.52917 0.52917h1.0583 1.0583v0.52917 0.52917h0.52917 0.52917v-1.0583-1.0583h-1.5875-1.5875zm4.2333 0v1.5875 1.5875h2.1167 2.1167v-1.5875-1.5875h-2.1167-2.1167zm-26.458 2.1167v0.52917 0.52917h0.52917 0.52917v-0.52917-0.52917h-0.52917-0.52917zm2.1167 0v0.52917 0.52917h0.52917 0.52917v1.0583 1.0583h3.175 1.0971a12.786 12.786 0 0 1 2.0779-1.2671v-0.32039-1.5875h-3.7042-3.7042zm8.4667 0v1.4516a12.786 12.786 0 0 1 4.5294-0.82941 12.786 12.786 0 0 1 1.8206 0.13022v-0.75241h-3.175-3.175zm9.525 0v1.0583 0.58033a12.786 12.786 0 0 1 1.0025 0.47801h0.05581v-1.0583-1.0583h-0.52917-0.52917zm2.1167 0v1.0583 1.0583h0.52917 0.52917v-1.0583-1.0583h-0.52917-0.52917zm2.1167 1.0583v1.0583 1.0583h-1.5637a12.786 12.786 0 0 1 2.6221 2.6407v-4.7573h-0.52917-0.52917zm2.1167 1.0583v1.0583 1.0583h1.0583 1.0583v-1.0583-1.0583h-1.0583-1.0583zm3.175 0v0.52917 0.52917h0.52917 0.52917v-0.52917-0.52917h-0.52917-0.52917zm-30.692 2.1167v11.642 11.642h3.7042 3.7042v-4.7982a12.786 12.786 0 0 1-4.023-9.3105 12.786 12.786 0 0 1 3.8809-9.1746h-3.5621-3.7042zm30.692 0v1.5875 1.5875h0.52917 0.52917v-1.5875-1.5875h-0.52917-0.52917zm-3.175 1.0583v1.5875 0.63407a12.786 12.786 0 0 1 0.44648 0.95343h0.082683 0.52917v-0.52917-0.52917h0.52917 0.52917v-1.0583-1.0583h-1.0583-1.0583zm2.1167 3.175v0.52917 0.52917h-1.0583-0.22221a12.786 12.786 0 0 1 0.6041 3.883 12.786 12.786 0 0 1-0.2403 2.467h0.91674 2.1167v-3.7042-3.7042h-1.0583-1.0583zm-1.172 8.4667a12.786 12.786 0 0 1-0.94464 2.3699v1.8635h1.5875 1.5875v0.52917 0.52917h0.52917 0.52917v-2.6458-2.6458h-2.1167-1.172zm-2.003 4.0675a12.786 12.786 0 0 1-3.6592 3.3409h1.0134 2.6458v-3.3409zm1.0583 1.2242v1.0583 1.0583h1.0583 1.0583v-1.0583-1.0583h-1.0583-1.0583zm-19.05 1.387v0.72967h0.52917 0.52917v-0.010852a12.786 12.786 0 0 1-1.0583-0.71882zm2.1167 1.296v0.49196 1.0583h3.7042 3.7042v-0.39481a12.786 12.786 0 0 1-1.8206 0.13022 12.786 12.786 0 0 1-5.5878-1.2857zm-2.1167 0.49196v1.0583 1.0583h0.52917 0.52917v-1.0583-1.0583h-0.52917-0.52917zm12.139 0a12.786 12.786 0 0 1-1.556 0.4656v0.063562 1.5875h-4.2333-4.2333v0.52917 0.52917h-1.0583-1.0583v0.52917 0.52917h5.8208 5.8208v-1.5875-1.5875h1.0583 1.0583v-0.52917-0.52917h-1.0583-0.56069zm2.6774 0v0.52917 0.52917h0.52917 0.52917v1.0583 1.0583h0.52917 0.52917v-1.5875-1.5875h-1.0583-1.0583zm3.175 0v1.0583 1.0583h0.52917 0.52917v-1.0583-1.0583h-0.52917-0.52917zm2.1167 0v1.5875 1.5875h-1.0583-1.0583v0.52917 0.52917h1.5875 1.5875v-2.1167-2.1167h-0.52917-0.52917zm-7.4083 2.1167v0.52917 0.52917h1.0583 1.0583v-0.52917-0.52917h-1.0583-1.0583z" fill="#fe0000"/></g><g stroke-linejoin="round" stroke-width="1.0583"><circle cx="17.229" cy="16.583" r="12.786" fill="#5b66ff" stroke="#fff"/><path d="m8.7899 23.79v-0.82974h0.25682q0.65193 0 1.1261-0.21731 0.49389-0.23707 0.49389-1.1063v-9.779q0-0.86925-0.49389-1.1063-0.47413-0.23707-1.1261-0.23707h-0.25682v-0.82974h4.5043l4.0894 11.3 4.0499-11.3h4.3857v0.82974h-0.25682q-0.67169 0-1.1458 0.25682-0.47413 0.23707-0.47413 1.1656v9.6012q0 0.92851 0.47413 1.1853 0.47414 0.23707 1.1458 0.23707h0.25682v0.82974h-5.255v-0.82974h0.05927q0.63218 0 1.0075-0.21731 0.37536-0.21731 0.41487-1.0273v-10.549l-4.524 12.624h-1.0668l-4.5833-12.584v10.332q0 0.92851 0.37536 1.1853 0.37536 0.23707 1.047 0.23707h0.05927v0.82974z" fill="#000765" aria-label="M"/></g></svg>
