<?xml version="1.0" encoding="UTF-8" standalone="no"?>
<!-- Created with Inkscape (http://www.inkscape.org/) -->

<svg
   width="128"
   height="128"
   viewBox="0 0 33.866667 33.866667"
   version="1.1"
   id="svg1"
   xml:space="preserve"
   inkscape:version="1.4.2 (ebf0e940d0, 2025-05-08)"
   sodipodi:docname="icon_inkscape.svg"
   inkscape:export-filename="../icon.webp"
   inkscape:export-xdpi="384"
   inkscape:export-ydpi="384"
   xmlns:inkscape="http://www.inkscape.org/namespaces/inkscape"
   xmlns:sodipodi="http://sodipodi.sourceforge.net/DTD/sodipodi-0.dtd"
   xmlns="http://www.w3.org/2000/svg"
   xmlns:svg="http://www.w3.org/2000/svg"><sodipodi:namedview
     id="namedview1"
     pagecolor="#ffffff"
     bordercolor="#111111"
     borderopacity="1"
     inkscape:showpageshadow="0"
     inkscape:pageopacity="0"
     inkscape:pagecheckerboard="1"
     inkscape:deskcolor="#d1d1d1"
     inkscape:document-units="mm"
     inkscape:zoom="6.5495511"
     inkscape:cx="64.431897"
     inkscape:cy="56.41608"
     inkscape:window-width="2133"
     inkscape:window-height="1128"
     inkscape:window-x="0"
     inkscape:window-y="0"
     inkscape:window-maximized="1"
     inkscape:current-layer="layer1"
     showgrid="false" /><defs
     id="defs1" /><g
     inkscape:label="Layer 1"
     inkscape:groupmode="layer"
     id="layer1"><g
       id="g5"><g
         id="g3"><path
           style="fill:#ffffff;fill-opacity:1"
           d="M 15.345833,33.866665 H 8.4666666 V 32.808332 31.749998 H 4.2333326 0 V 19.049999 6.3499997 h 2.1166666 2.116666 V 5.8208331 5.2916665 H 2.6458336 1.0583333 v -1.5875 -1.5874999 h 9.5249997 9.524999 v 1.5874999 1.5875 h 0.529167 0.529167 v -1.5875 -1.5874999 h 1.058333 1.058333 V 1.0583333 0 h 5.291666 5.291667 v 13.229166 13.229166 h -1.058333 -1.058334 v 3.704166 3.704167 h -2.645833 -2.645833 v -0.529167 -0.529166 h -2.116667 -2.116666 v 0.529166 0.529167 z"
           id="path3" /><path
           id="path2"
           style="fill:#fe0000;fill-opacity:1"
           d="M 24.341667 1.0583333 L 24.341667 1.5875 L 24.341667 2.1166667 L 25.4 2.1166667 L 26.458333 2.1166667 L 26.458333 2.6458333 L 26.458333 3.175 L 26.9875 3.175 L 27.516667 3.175 L 27.516667 2.1166667 L 27.516667 1.0583333 L 25.929167 1.0583333 L 24.341667 1.0583333 z M 28.575 1.0583333 L 28.575 2.6458333 L 28.575 4.2333333 L 30.691667 4.2333333 L 32.808333 4.2333333 L 32.808333 2.6458333 L 32.808333 1.0583333 L 30.691667 1.0583333 L 28.575 1.0583333 z M 2.1166667 3.175 L 2.1166667 3.7041667 L 2.1166667 4.2333333 L 2.6458333 4.2333333 L 3.175 4.2333333 L 3.175 3.7041667 L 3.175 3.175 L 2.6458333 3.175 L 2.1166667 3.175 z M 4.2333333 3.175 L 4.2333333 3.7041667 L 4.2333333 4.2333333 L 4.7625 4.2333333 L 5.2916667 4.2333333 L 5.2916667 5.2916667 L 5.2916667 6.35 L 8.4666667 6.35 L 9.5637573 6.35 A 12.785704 12.785704 0 0 1 11.641667 5.0828939 L 11.641667 4.7625 L 11.641667 3.175 L 7.9375 3.175 L 4.2333333 3.175 z M 12.7 3.175 L 12.7 4.626591 A 12.785704 12.785704 0 0 1 17.229439 3.7971842 A 12.785704 12.785704 0 0 1 19.05 3.9274089 L 19.05 3.175 L 15.875 3.175 L 12.7 3.175 z M 22.225 3.175 L 22.225 4.2333333 L 22.225 4.8136597 A 12.785704 12.785704 0 0 1 23.227523 5.2916667 L 23.283333 5.2916667 L 23.283333 4.2333333 L 23.283333 3.175 L 22.754167 3.175 L 22.225 3.175 z M 24.341667 3.175 L 24.341667 4.2333333 L 24.341667 5.2916667 L 24.870833 5.2916667 L 25.4 5.2916667 L 25.4 4.2333333 L 25.4 3.175 L 24.870833 3.175 L 24.341667 3.175 z M 26.458333 4.2333333 L 26.458333 5.2916667 L 26.458333 6.35 L 24.894604 6.35 A 12.785704 12.785704 0 0 1 27.516667 8.9906657 L 27.516667 4.2333333 L 26.9875 4.2333333 L 26.458333 4.2333333 z M 28.575 5.2916667 L 28.575 6.35 L 28.575 7.4083333 L 29.633333 7.4083333 L 30.691667 7.4083333 L 30.691667 6.35 L 30.691667 5.2916667 L 29.633333 5.2916667 L 28.575 5.2916667 z M 31.75 5.2916667 L 31.75 5.8208333 L 31.75 6.35 L 32.279167 6.35 L 32.808333 6.35 L 32.808333 5.8208333 L 32.808333 5.2916667 L 32.279167 5.2916667 L 31.75 5.2916667 z M 1.0583333 7.4083333 L 1.0583333 19.05 L 1.0583333 30.691667 L 4.7625 30.691667 L 8.4666667 30.691667 L 8.4666667 25.89351 A 12.785704 12.785704 0 0 1 4.4436564 16.582967 A 12.785704 12.785704 0 0 1 8.3245565 7.4083333 L 4.7625 7.4083333 L 1.0583333 7.4083333 z M 31.75 7.4083333 L 31.75 8.9958333 L 31.75 10.583333 L 32.279167 10.583333 L 32.808333 10.583333 L 32.808333 8.9958333 L 32.808333 7.4083333 L 32.279167 7.4083333 L 31.75 7.4083333 z M 28.575 8.4666667 L 28.575 10.054167 L 28.575 10.688236 A 12.785704 12.785704 0 0 1 29.021484 11.641667 L 29.104167 11.641667 L 29.633333 11.641667 L 29.633333 11.1125 L 29.633333 10.583333 L 30.1625 10.583333 L 30.691667 10.583333 L 30.691667 9.525 L 30.691667 8.4666667 L 29.633333 8.4666667 L 28.575 8.4666667 z M 30.691667 11.641667 L 30.691667 12.170833 L 30.691667 12.7 L 29.633333 12.7 L 29.411125 12.7 A 12.785704 12.785704 0 0 1 30.015222 16.582967 A 12.785704 12.785704 0 0 1 29.774927 19.05 L 30.691667 19.05 L 32.808333 19.05 L 32.808333 15.345833 L 32.808333 11.641667 L 31.75 11.641667 L 30.691667 11.641667 z M 29.519645 20.108333 A 12.785704 12.785704 0 0 1 28.575 22.478215 L 28.575 24.341667 L 30.1625 24.341667 L 31.75 24.341667 L 31.75 24.870833 L 31.75 25.4 L 32.279167 25.4 L 32.808333 25.4 L 32.808333 22.754167 L 32.808333 20.108333 L 30.691667 20.108333 L 29.519645 20.108333 z M 27.516667 24.175785 A 12.785704 12.785704 0 0 1 23.857458 27.516667 L 24.870833 27.516667 L 27.516667 27.516667 L 27.516667 24.175785 z M 28.575 25.4 L 28.575 26.458333 L 28.575 27.516667 L 29.633333 27.516667 L 30.691667 27.516667 L 30.691667 26.458333 L 30.691667 25.4 L 29.633333 25.4 L 28.575 25.4 z M 9.525 26.786995 L 9.525 27.516667 L 10.054167 27.516667 L 10.583333 27.516667 L 10.583333 27.505815 A 12.785704 12.785704 0 0 1 9.525 26.786995 z M 11.641667 28.08304 L 11.641667 28.575 L 11.641667 29.633333 L 15.345833 29.633333 L 19.05 29.633333 L 19.05 29.238525 A 12.785704 12.785704 0 0 1 17.229439 29.36875 A 12.785704 12.785704 0 0 1 11.641667 28.08304 z M 9.525 28.575 L 9.525 29.633333 L 9.525 30.691667 L 10.054167 30.691667 L 10.583333 30.691667 L 10.583333 29.633333 L 10.583333 28.575 L 10.054167 28.575 L 9.525 28.575 z M 21.664311 28.575 A 12.785704 12.785704 0 0 1 20.108333 29.040605 L 20.108333 29.104167 L 20.108333 30.691667 L 15.875 30.691667 L 11.641667 30.691667 L 11.641667 31.220833 L 11.641667 31.75 L 10.583333 31.75 L 9.525 31.75 L 9.525 32.279167 L 9.525 32.808333 L 15.345833 32.808333 L 21.166667 32.808333 L 21.166667 31.220833 L 21.166667 29.633333 L 22.225 29.633333 L 23.283333 29.633333 L 23.283333 29.104167 L 23.283333 28.575 L 22.225 28.575 L 21.664311 28.575 z M 24.341667 28.575 L 24.341667 29.104167 L 24.341667 29.633333 L 24.870833 29.633333 L 25.4 29.633333 L 25.4 30.691667 L 25.4 31.75 L 25.929167 31.75 L 26.458333 31.75 L 26.458333 30.1625 L 26.458333 28.575 L 25.4 28.575 L 24.341667 28.575 z M 27.516667 28.575 L 27.516667 29.633333 L 27.516667 30.691667 L 28.045833 30.691667 L 28.575 30.691667 L 28.575 29.633333 L 28.575 28.575 L 28.045833 28.575 L 27.516667 28.575 z M 29.633333 28.575 L 29.633333 30.1625 L 29.633333 31.75 L 28.575 31.75 L 27.516667 31.75 L 27.516667 32.279167 L 27.516667 32.808333 L 29.104167 32.808333 L 30.691667 32.808333 L 30.691667 30.691667 L 30.691667 28.575 L 30.1625 28.575 L 29.633333 28.575 z M 22.225 30.691667 L 22.225 31.220833 L 22.225 31.75 L 23.283333 31.75 L 24.341667 31.75 L 24.341667 31.220833 L 24.341667 30.691667 L 23.283333 30.691667 L 22.225 30.691667 z " /></g><g
         id="g4"><circle
           style="fill:#5b66ff;fill-opacity:1;stroke:#ffffff;stroke-width:1.05833;stroke-linejoin:round;stroke-opacity:1"
           id="path1"
           cx="17.229393"
           cy="16.583038"
           r="12.785704" /><text
           xml:space="preserve"
           style="font-size:19.7556px;font-family:'Noto Serif';-inkscape-font-specification:'Noto Serif';text-align:start;writing-mode:lr-tb;direction:ltr;text-anchor:start;fill:#5b66ff;fill-opacity:1;stroke:#ffffff;stroke-width:1.05833;stroke-linejoin:round;stroke-opacity:1"
           x="17.304581"
           y="23.789524"
           id="text1"><tspan
             sodipodi:role="line"
             id="tspan1"
             style="font-size:19.7556px;text-align:center;text-anchor:middle;fill:#000765;fill-opacity:1;stroke:none;stroke-width:1.05833"
             x="17.304581"
             y="23.789524">M</tspan></text></g></g></g></svg>
